<mxfile host="app.diagrams.net" modified="2023-05-28T01:16:03.418Z" agent="Mozilla/5.0 (Windows NT 10.0; Win64; x64) AppleWebKit/537.36 (KHTML, like Gecko) Chrome/113.0.0.0 Safari/537.36 Edg/113.0.1774.57" etag="zzPr56Gtue0_gG-ZiqKc" version="21.3.4" type="github">
  <diagram name="Page-1" id="EL3PwDNqBGDX39U9rWWn">
    <mxGraphModel dx="560" dy="746" grid="1" gridSize="10" guides="1" tooltips="1" connect="1" arrows="1" fold="1" page="1" pageScale="1" pageWidth="850" pageHeight="1100" math="0" shadow="0">
      <root>
        <mxCell id="0" />
        <mxCell id="1" parent="0" />
        <mxCell id="4h9ZR6NtVkpRv7jf477H-4" value="SRAS System" style="swimlane;" vertex="1" parent="1">
          <mxGeometry x="130" y="530" width="640" height="500" as="geometry" />
        </mxCell>
        <mxCell id="4h9ZR6NtVkpRv7jf477H-56" style="edgeStyle=orthogonalEdgeStyle;rounded=0;orthogonalLoop=1;jettySize=auto;html=1;entryX=0;entryY=0.5;entryDx=0;entryDy=0;" edge="1" parent="4h9ZR6NtVkpRv7jf477H-4">
          <mxGeometry relative="1" as="geometry">
            <mxPoint x="240" y="99" as="sourcePoint" />
            <mxPoint x="290" y="99" as="targetPoint" />
            <Array as="points">
              <mxPoint x="240" y="99" />
              <mxPoint x="240" y="99" />
            </Array>
          </mxGeometry>
        </mxCell>
        <mxCell id="4h9ZR6NtVkpRv7jf477H-17" value="Frontend" style="swimlane;" vertex="1" parent="4h9ZR6NtVkpRv7jf477H-4">
          <mxGeometry x="10" y="30" width="230" height="460" as="geometry" />
        </mxCell>
        <mxCell id="4h9ZR6NtVkpRv7jf477H-38" value="User events" style="edgeStyle=orthogonalEdgeStyle;rounded=0;orthogonalLoop=1;jettySize=auto;html=1;" edge="1" parent="4h9ZR6NtVkpRv7jf477H-17">
          <mxGeometry relative="1" as="geometry">
            <mxPoint x="40" y="120" as="sourcePoint" />
            <mxPoint x="40" y="210" as="targetPoint" />
          </mxGeometry>
        </mxCell>
        <mxCell id="4h9ZR6NtVkpRv7jf477H-32" value="View" style="rounded=0;whiteSpace=wrap;html=1;" vertex="1" parent="4h9ZR6NtVkpRv7jf477H-17">
          <mxGeometry x="20" y="60" width="190" height="60" as="geometry" />
        </mxCell>
        <mxCell id="4h9ZR6NtVkpRv7jf477H-39" value="Update" style="edgeStyle=orthogonalEdgeStyle;rounded=0;orthogonalLoop=1;jettySize=auto;html=1;entryX=0.5;entryY=1;entryDx=0;entryDy=0;" edge="1" parent="4h9ZR6NtVkpRv7jf477H-17">
          <mxGeometry relative="1" as="geometry">
            <mxPoint x="192" y="210" as="sourcePoint" />
            <mxPoint x="192" y="120" as="targetPoint" />
          </mxGeometry>
        </mxCell>
        <mxCell id="4h9ZR6NtVkpRv7jf477H-40" value="Updates" style="edgeStyle=orthogonalEdgeStyle;rounded=0;orthogonalLoop=1;jettySize=auto;html=1;" edge="1" parent="4h9ZR6NtVkpRv7jf477H-17">
          <mxGeometry relative="1" as="geometry">
            <mxPoint x="39" y="270" as="sourcePoint" />
            <mxPoint x="39" y="360" as="targetPoint" />
          </mxGeometry>
        </mxCell>
        <mxCell id="4h9ZR6NtVkpRv7jf477H-35" value="Presenter" style="rounded=0;whiteSpace=wrap;html=1;" vertex="1" parent="4h9ZR6NtVkpRv7jf477H-17">
          <mxGeometry x="20" y="210" width="190" height="60" as="geometry" />
        </mxCell>
        <mxCell id="4h9ZR6NtVkpRv7jf477H-41" value="State change&lt;br&gt;events" style="edgeStyle=orthogonalEdgeStyle;rounded=0;orthogonalLoop=1;jettySize=auto;html=1;entryX=0.5;entryY=1;entryDx=0;entryDy=0;" edge="1" parent="4h9ZR6NtVkpRv7jf477H-17">
          <mxGeometry relative="1" as="geometry">
            <mxPoint x="189" y="360" as="sourcePoint" />
            <mxPoint x="189" y="270" as="targetPoint" />
          </mxGeometry>
        </mxCell>
        <mxCell id="4h9ZR6NtVkpRv7jf477H-36" value="Model" style="rounded=0;whiteSpace=wrap;html=1;" vertex="1" parent="4h9ZR6NtVkpRv7jf477H-17">
          <mxGeometry x="20" y="360" width="190" height="60" as="geometry" />
        </mxCell>
        <mxCell id="4h9ZR6NtVkpRv7jf477H-18" value="Backend" style="swimlane;" vertex="1" parent="4h9ZR6NtVkpRv7jf477H-4">
          <mxGeometry x="270" y="30" width="330" height="460" as="geometry" />
        </mxCell>
        <mxCell id="4h9ZR6NtVkpRv7jf477H-45" value="Update" style="edgeStyle=orthogonalEdgeStyle;rounded=0;orthogonalLoop=1;jettySize=auto;html=1;entryX=0;entryY=0.5;entryDx=0;entryDy=0;" edge="1" parent="4h9ZR6NtVkpRv7jf477H-18">
          <mxGeometry relative="1" as="geometry">
            <mxPoint x="140" y="389" as="sourcePoint" />
            <mxPoint x="190" y="389" as="targetPoint" />
          </mxGeometry>
        </mxCell>
        <mxCell id="4h9ZR6NtVkpRv7jf477H-16" value="Model" style="rounded=0;whiteSpace=wrap;html=1;" vertex="1" parent="4h9ZR6NtVkpRv7jf477H-18">
          <mxGeometry x="20" y="360" width="120" height="60" as="geometry" />
        </mxCell>
        <mxCell id="4h9ZR6NtVkpRv7jf477H-44" value="Manipulate" style="edgeStyle=orthogonalEdgeStyle;rounded=0;orthogonalLoop=1;jettySize=auto;html=1;" edge="1" parent="4h9ZR6NtVkpRv7jf477H-18">
          <mxGeometry relative="1" as="geometry">
            <mxPoint x="40" y="120" as="sourcePoint" />
            <mxPoint x="40" y="360" as="targetPoint" />
            <Array as="points">
              <mxPoint x="40" y="180" />
              <mxPoint x="40" y="180" />
            </Array>
          </mxGeometry>
        </mxCell>
        <mxCell id="4h9ZR6NtVkpRv7jf477H-61" style="edgeStyle=orthogonalEdgeStyle;rounded=0;orthogonalLoop=1;jettySize=auto;html=1;" edge="1" parent="4h9ZR6NtVkpRv7jf477H-18">
          <mxGeometry relative="1" as="geometry">
            <mxPoint x="-30" y="107" as="targetPoint" />
            <mxPoint x="20" y="107" as="sourcePoint" />
          </mxGeometry>
        </mxCell>
        <mxCell id="4h9ZR6NtVkpRv7jf477H-13" value="API Controller" style="rounded=0;whiteSpace=wrap;html=1;" vertex="1" parent="4h9ZR6NtVkpRv7jf477H-18">
          <mxGeometry x="20" y="60" width="290" height="60" as="geometry" />
        </mxCell>
        <mxCell id="4h9ZR6NtVkpRv7jf477H-49" value="Map result" style="edgeStyle=orthogonalEdgeStyle;rounded=0;orthogonalLoop=1;jettySize=auto;html=1;entryX=0.5;entryY=1;entryDx=0;entryDy=0;" edge="1" parent="4h9ZR6NtVkpRv7jf477H-18" source="4h9ZR6NtVkpRv7jf477H-42" target="4h9ZR6NtVkpRv7jf477H-43">
          <mxGeometry relative="1" as="geometry" />
        </mxCell>
        <mxCell id="4h9ZR6NtVkpRv7jf477H-42" value="Data Persistence" style="rounded=0;whiteSpace=wrap;html=1;" vertex="1" parent="4h9ZR6NtVkpRv7jf477H-18">
          <mxGeometry x="190" y="360" width="120" height="60" as="geometry" />
        </mxCell>
        <mxCell id="4h9ZR6NtVkpRv7jf477H-51" value="Represent" style="edgeStyle=orthogonalEdgeStyle;rounded=0;orthogonalLoop=1;jettySize=auto;html=1;entryX=0.79;entryY=0.967;entryDx=0;entryDy=0;entryPerimeter=0;" edge="1" parent="4h9ZR6NtVkpRv7jf477H-18" source="4h9ZR6NtVkpRv7jf477H-43" target="4h9ZR6NtVkpRv7jf477H-13">
          <mxGeometry x="-0.0095" relative="1" as="geometry">
            <mxPoint as="offset" />
          </mxGeometry>
        </mxCell>
        <mxCell id="4h9ZR6NtVkpRv7jf477H-43" value="Data Mapper" style="rounded=0;whiteSpace=wrap;html=1;" vertex="1" parent="4h9ZR6NtVkpRv7jf477H-18">
          <mxGeometry x="190" y="210" width="120" height="60" as="geometry" />
        </mxCell>
        <mxCell id="4h9ZR6NtVkpRv7jf477H-48" style="edgeStyle=orthogonalEdgeStyle;rounded=0;orthogonalLoop=1;jettySize=auto;html=1;entryX=1;entryY=0.75;entryDx=0;entryDy=0;" edge="1" parent="1" source="4h9ZR6NtVkpRv7jf477H-22" target="4h9ZR6NtVkpRv7jf477H-42">
          <mxGeometry relative="1" as="geometry">
            <Array as="points">
              <mxPoint x="780" y="965" />
              <mxPoint x="780" y="965" />
            </Array>
          </mxGeometry>
        </mxCell>
        <mxCell id="4h9ZR6NtVkpRv7jf477H-22" value="Database" style="shape=datastore;whiteSpace=wrap;html=1;" vertex="1" parent="1">
          <mxGeometry x="800" y="910" width="110" height="90" as="geometry" />
        </mxCell>
        <mxCell id="4h9ZR6NtVkpRv7jf477H-25" value="Third-party Services" style="swimlane;" vertex="1" parent="1">
          <mxGeometry x="790" y="550" width="140" height="180" as="geometry" />
        </mxCell>
        <mxCell id="4h9ZR6NtVkpRv7jf477H-26" value="Messaging Service" style="rounded=0;whiteSpace=wrap;html=1;" vertex="1" parent="4h9ZR6NtVkpRv7jf477H-25">
          <mxGeometry x="10" y="35" width="120" height="60" as="geometry" />
        </mxCell>
        <mxCell id="4h9ZR6NtVkpRv7jf477H-27" value="Payment Service" style="rounded=0;whiteSpace=wrap;html=1;" vertex="1" parent="4h9ZR6NtVkpRv7jf477H-25">
          <mxGeometry x="10" y="110" width="120" height="60" as="geometry" />
        </mxCell>
        <mxCell id="4h9ZR6NtVkpRv7jf477H-37" value="" style="group" vertex="1" connectable="0" parent="1">
          <mxGeometry x="25" y="770" width="60" height="110" as="geometry" />
        </mxCell>
        <mxCell id="4h9ZR6NtVkpRv7jf477H-3" value="" style="shape=actor;whiteSpace=wrap;html=1;" vertex="1" parent="4h9ZR6NtVkpRv7jf477H-37">
          <mxGeometry x="5" width="50" height="60" as="geometry" />
        </mxCell>
        <mxCell id="4h9ZR6NtVkpRv7jf477H-19" value="Users" style="text;strokeColor=none;align=center;fillColor=none;html=1;verticalAlign=middle;whiteSpace=wrap;rounded=0;" vertex="1" parent="4h9ZR6NtVkpRv7jf477H-37">
          <mxGeometry y="70" width="60" height="40" as="geometry" />
        </mxCell>
        <mxCell id="4h9ZR6NtVkpRv7jf477H-47" style="edgeStyle=orthogonalEdgeStyle;rounded=0;orthogonalLoop=1;jettySize=auto;html=1;entryX=0;entryY=0.3;entryDx=0;entryDy=0;exitX=1;exitY=0.25;exitDx=0;exitDy=0;" edge="1" parent="1" source="4h9ZR6NtVkpRv7jf477H-42">
          <mxGeometry relative="1" as="geometry">
            <mxPoint x="730" y="934" as="sourcePoint" />
            <mxPoint x="800" y="934" as="targetPoint" />
          </mxGeometry>
        </mxCell>
        <mxCell id="4h9ZR6NtVkpRv7jf477H-59" style="edgeStyle=orthogonalEdgeStyle;rounded=0;orthogonalLoop=1;jettySize=auto;html=1;entryX=0;entryY=0.25;entryDx=0;entryDy=0;" edge="1" parent="1" target="4h9ZR6NtVkpRv7jf477H-32">
          <mxGeometry relative="1" as="geometry">
            <mxPoint x="43" y="770" as="sourcePoint" />
            <mxPoint x="148" y="635" as="targetPoint" />
            <Array as="points">
              <mxPoint x="43" y="635" />
            </Array>
          </mxGeometry>
        </mxCell>
        <mxCell id="4h9ZR6NtVkpRv7jf477H-60" style="edgeStyle=orthogonalEdgeStyle;rounded=0;orthogonalLoop=1;jettySize=auto;html=1;" edge="1" parent="1">
          <mxGeometry relative="1" as="geometry">
            <mxPoint x="160" y="670" as="sourcePoint" />
            <mxPoint x="66" y="770" as="targetPoint" />
          </mxGeometry>
        </mxCell>
        <mxCell id="4h9ZR6NtVkpRv7jf477H-64" style="edgeStyle=orthogonalEdgeStyle;rounded=0;orthogonalLoop=1;jettySize=auto;html=1;entryX=0;entryY=0.75;entryDx=0;entryDy=0;" edge="1" parent="1" source="4h9ZR6NtVkpRv7jf477H-13" target="4h9ZR6NtVkpRv7jf477H-26">
          <mxGeometry relative="1" as="geometry">
            <Array as="points">
              <mxPoint x="730" y="630" />
              <mxPoint x="730" y="630" />
            </Array>
          </mxGeometry>
        </mxCell>
        <mxCell id="4h9ZR6NtVkpRv7jf477H-65" style="edgeStyle=orthogonalEdgeStyle;rounded=0;orthogonalLoop=1;jettySize=auto;html=1;" edge="1" parent="1">
          <mxGeometry relative="1" as="geometry">
            <mxPoint x="800" y="630" as="sourcePoint" />
            <mxPoint x="710" y="630" as="targetPoint" />
            <Array as="points">
              <mxPoint x="780" y="630" />
              <mxPoint x="780" y="630" />
            </Array>
          </mxGeometry>
        </mxCell>
        <mxCell id="4h9ZR6NtVkpRv7jf477H-66" style="edgeStyle=orthogonalEdgeStyle;rounded=0;orthogonalLoop=1;jettySize=auto;html=1;" edge="1" parent="1">
          <mxGeometry relative="1" as="geometry">
            <mxPoint x="799" y="674" as="sourcePoint" />
            <mxPoint x="709" y="674" as="targetPoint" />
            <Array as="points">
              <mxPoint x="779" y="674" />
              <mxPoint x="779" y="674" />
            </Array>
          </mxGeometry>
        </mxCell>
        <mxCell id="4h9ZR6NtVkpRv7jf477H-68" style="edgeStyle=orthogonalEdgeStyle;rounded=0;orthogonalLoop=1;jettySize=auto;html=1;entryX=0;entryY=0.25;entryDx=0;entryDy=0;" edge="1" parent="1">
          <mxGeometry relative="1" as="geometry">
            <mxPoint x="710" y="674" as="sourcePoint" />
            <mxPoint x="800" y="674" as="targetPoint" />
            <Array as="points">
              <mxPoint x="740" y="674" />
              <mxPoint x="740" y="674" />
            </Array>
          </mxGeometry>
        </mxCell>
      </root>
    </mxGraphModel>
  </diagram>
</mxfile>
